<svg xmlns="http://www.w3.org/2000/svg" version="1.1" xmlns:xlink="http://www.w3.org/1999/xlink" xmlns:svgjs="http://svgjs.com/svgjs" width="1440" height="800" preserveAspectRatio="none" viewBox="0 0 1440 800"><g mask="url(&quot;#SvgjsMask1224&quot;)" fill="none"><rect width="1440" height="800" x="0" y="0" fill="rgba(39, 198, 218, 1)"></rect><path d="M64 800L864 0L1009.5 0L209.5 800z" fill="url(#SvgjsLinearGradient1225)"></path><path d="M509.20000000000005 800L1309.2 0L1732.2 0L932.2 800z" fill="url(#SvgjsLinearGradient1225)"></path><path d="M1347 800L547 0L-12.5 0L787.5 800z" fill="url(#SvgjsLinearGradient1226)"></path><path d="M869.8 800L69.79999999999995 0L-23.200000000000045 0L776.8 800z" fill="url(#SvgjsLinearGradient1226)"></path><path d="M692.6542588025086 800L1440 52.65425880250859L1440 800z" fill="url(#SvgjsLinearGradient1225)"></path><path d="M0 800L747.3457411974914 800L 0 52.65425880250859z" fill="url(#SvgjsLinearGradient1226)"></path></g><defs><mask id="SvgjsMask1224"><rect width="1440" height="800" fill="#ffffff"></rect></mask><linearGradient x1="0%" y1="100%" x2="100%" y2="0%" id="SvgjsLinearGradient1225"><stop stop-color="rgba(15, 70, 185, 0.2)" offset="0"></stop><stop stop-opacity="0" stop-color="rgba(15, 70, 185, 0.2)" offset="0.66"></stop></linearGradient><linearGradient x1="100%" y1="100%" x2="0%" y2="0%" id="SvgjsLinearGradient1226"><stop stop-color="rgba(15, 70, 185, 0.2)" offset="0"></stop><stop stop-opacity="0" stop-color="rgba(15, 70, 185, 0.2)" offset="0.66"></stop></linearGradient></defs></svg>