<svg xmlns="http://www.w3.org/2000/svg" version="1.1" xmlns:xlink="http://www.w3.org/1999/xlink" xmlns:svgjs="http://svgjs.com/svgjs" width="1440" height="800" preserveAspectRatio="none" viewBox="0 0 1440 800"><g mask="url(&quot;#SvgjsMask1222&quot;)" fill="none"><rect width="1440" height="800" x="0" y="0" fill="url(#SvgjsLinearGradient1223)"></rect><path d="M1440 0L1060.23 0L1440 147.32z" fill="rgba(255, 255, 255, .1)"></path><path d="M1060.23 0L1440 147.32L1440 167.41L692.62 0z" fill="rgba(255, 255, 255, .075)"></path><path d="M692.62 0L1440 167.41L1440 434.73L387.59000000000003 0z" fill="rgba(255, 255, 255, .05)"></path><path d="M387.59000000000015 0L1440 434.73L1440 489.33000000000004L381.47000000000014 0z" fill="rgba(255, 255, 255, .025)"></path><path d="M0 800L157.38 800L0 761.17z" fill="rgba(0, 0, 0, .1)"></path><path d="M0 761.17L157.38 800L165.6 800L0 680.51z" fill="rgba(0, 0, 0, .075)"></path><path d="M0 680.51L165.6 800L254.57999999999998 800L0 327.25z" fill="rgba(0, 0, 0, .05)"></path><path d="M0 327.25L254.57999999999998 800L1047.03 800L0 309.24z" fill="rgba(0, 0, 0, .025)"></path></g><defs><mask id="SvgjsMask1222"><rect width="1440" height="800" fill="#ffffff"></rect></mask><linearGradient x1="11.11%" y1="-20%" x2="88.89%" y2="120%" gradientUnits="userSpaceOnUse" id="SvgjsLinearGradient1223"><stop stop-color="#0e2a47" offset="0"></stop><stop stop-color="rgba(125, 96, 249, 1)" offset="1"></stop></linearGradient></defs></svg>